<?xml version="1.0" encoding="UTF-8"?>
<svg id="Layer_2" data-name="Layer 2" xmlns="http://www.w3.org/2000/svg" viewBox="0 0 674 674">
  <defs>
    <style>
      .cls-1 {
        fill: #5d1600;
        stroke: #f16122;
        stroke-miterlimit: 10;
        stroke-width: 5px;
      }
    </style>
  </defs>
  <g id="Layer_1-2" data-name="Layer 1">
    <g>
      <g>
        <path class="cls-1" d="M2.5,386.06c0-8.92,0-17.84,0-26.76.62-.73,1.69-1.4,1.79-2.19,8.23-66.9,46.53-109.42,107.08-135.49,11.11-4.78,22.03-15.7,27.55-26.58,10.19-20.05,16.25-42.19,24.13-63.42,16.22-43.71,35.76-85.87,80.13-107.56,21.27-10.4,45.6-14.57,68.54-21.56,16.85,0,33.7,0,50.55,0,2.2.78,4.35,1.98,6.62,2.26,55.85,7.08,96.9,35.97,121.15,86.3,14.06,29.19,24.42,60.19,35.97,90.56,7.99,21.02,18.02,36.65,43.23,43.11,50.05,12.82,82.98,45.89,95.18,97.19,3.38,14.2,4.78,28.87,7.09,43.32v53.52c-6.34,2.82-12.46,7.1-19.08,8.11-9.69,1.49-19.76.35-29.64.84-40.56,2.02-56.05,14.66-64,54.09-7.6,37.73-22.72,71-61.14,84.38-27.91,9.72-45.6,27.23-59.33,51.82-14.07,25.2-35.37,42.06-63.7,49.37-5.12,1.32-10.21,2.74-15.31,4.12h-44.6c-43.67-7.14-72.22-32.36-89.71-72.48-7.24-16.62-20.63-28.71-38.35-35.04-15.3-5.46-30.29-11.93-45.84-16.53-21.36-6.31-31.17-21.35-34.27-41.9-2.28-15.11-3.15-30.44-5.5-45.54-5.81-37.29-21.49-53.79-57.96-61.49-7.7-1.62-15.84-1.48-23.33-3.66-6.08-1.76-11.51-5.78-17.23-8.8ZM644.8,398.79c-.57-12.25-1.08-24.04-1.67-35.82-3.2-62.95-30.71-98.28-91.41-114.98-19.72-5.42-33.78-16.03-41.28-34.59-10.88-26.92-20.88-54.19-31.34-81.28-11.17-28.93-25.6-56.03-50.71-75.19C351.72-1.57,234.35,30.33,197.97,119.5c-11.52,28.25-20.84,57.4-32.17,85.73-8.2,20.49-22.66,35-44.05,43.13-13.22,5.03-26.1,12.07-37.56,20.38-33.42,24.23-50.51,57.72-53.77,99.8,5.99,1.05,10.76,1.94,15.55,2.73,44.02,7.26,71.67,31.68,80.18,72.09,2.73,12.97,2.96,26.45,4.82,39.62,5.01,35.43,2.97,34.4,33.97,43.09,43.06,12.08,76.71,34.23,94.32,77.67,6.57,16.21,19.96,28.48,37.3,34.23,37.12,12.3,93.26,13.45,122.15-40.05,4.44-8.22,9.15-16.71,15.54-23.34,8.38-8.71,17.42-19.73,28.14-22.73,43.66-12.21,65.56-41.03,71.69-84.28.62-4.35,2.29-8.57,3.59-12.81,9.05-29.53,29.86-45.71,59.46-50.83,14.95-2.59,30.23-3.32,47.66-5.14Z"/>
        <path class="cls-1" d="M284.3,192.82c-2.78,7.97-4.53,18.49-9.79,26.79-8.76,13.83-25.76,13.29-35.91.36-10.25-13.05-12-44.45-1.27-57.43,5-6.05,14.85-12.85,21.23-11.77,7.54,1.27,15.28,9.65,19.97,16.88,3.95,6.09,3.65,14.94,5.77,25.17Z"/>
        <path class="cls-1" d="M391.7,190.78c-2.74,8.92-3.63,18.4-8.35,25.22-4.21,6.09-12.82,12.99-19.19,12.71-7.27-.32-17.04-6.57-20.74-13.08-9.22-16.21-9.13-34.67-.22-51.01,3.7-6.78,13.18-14.19,20.16-14.32,6.94-.13,16.14,7.12,20.52,13.69,4.84,7.26,5.32,17.43,7.82,26.79Z"/>
      </g>
      <g>
        <path class="cls-1" d="M412.71,310.97c-6.33,5.87-11.35,10.44-16.25,15.12-3.48,3.32-6.92,6.7-10.2,10.22-5.06,5.42,2.15,32.1,9.26,34.08,8.5,2.37,17.87,7.6,25.41,5.73,7.14-1.77,12.43-11.08,18.46-17.16,3-3.02,5.84-6.21,8.75-9.33.72.16,1.44.32,2.15.48,0,5.04.61,10.17-.1,15.11-3.8,26.44-27.88,44.54-54.39,41.09-9.67-1.26-17.63,1.06-24.73,8.31-22.15,22.63-44.63,44.94-67.21,67.14-7.58,7.45-13.31,15.73-16.32,26-1.34,4.57-3.42,8.99-5.65,13.22-6.55,12.43-19.17,18.22-33.27,15.56-12.56-2.37-23.22-14.19-24.8-27.52-1.81-15.2,3.58-27.96,17.26-31.83,22.48-6.36,37.87-21.37,53.28-37.24,15.53-15.99,31.62-31.43,47.47-47.1,8.35-8.26,13.36-16.65,11.84-30-3.73-32.68,23.47-56.98,59.05-51.89ZM275.74,505.25c-4.68-5.5-4.24-17.37-16.4-17.54-.37,0-.68-.72-1.09-1.01-2.09-1.46-18.46,3.61-19.31,5.98-.17.46-.03,1.04-.22,1.49-3.44,8.11-6.03,16.19,0,24.34.83,1.13.86,3.3,1.85,3.78,4.11,2.02,8.63,5.34,12.65,4.91,5.93-.63,11.56-4.04,17.29-6.33.29-.12.31-.9.47-1.38,1.52-4.55,3.04-9.1,4.75-14.24Z"/>
        <path class="cls-1" d="M327.44,465.6c12.84-12.47,23.51-22.83,35.41-34.38.93,3.13,2.44,5.84,2.43,8.54-.06,10.63,3.67,14.54,14.33,16.62,4.69.92,9.75,3.31,13.21,6.56,12.17,11.44,23.84,23.43,35.47,35.43,9.27,9.56,9.16,23.59.11,32.76-9.23,9.35-22.93,9.67-32.62.29-11.82-11.45-23.7-22.9-34.72-35.1-3.8-4.2-5.9-10.43-7.38-16.09-2.27-8.64-6.44-12.4-15.34-12.4-3.04,0-6.08-1.2-10.9-2.23ZM373.64,473.31c-.53,1.19-1.44,2.25-1.23,2.99.51,1.8,1.17,3.81,2.43,5.09,12.57,12.79,25.21,25.5,38.01,38.05,1.42,1.39,4.01,1.6,6.06,2.36-.74-2.06-.92-4.67-2.31-6.1-12.48-12.86-25.16-25.53-37.82-38.22-1.2-1.2-2.64-2.16-5.14-4.17ZM384.58,470.9c.31,4.42,34.99,39.06,40.31,39.11-13.51-13.1-27.34-26.52-40.31-39.11ZM407.15,526.09c-.12-1.98-22.61-27.13-35.83-37.89-1.2-.97-3.02-1.19-4.8-1.85,14.24,13.93,27.92,27.31,40.63,39.74Z"/>
        <path class="cls-1" d="M318.28,401.91c-5.57,6.49-10.3,11.99-15.5,18.04-10.11-11.23-19.22-21.33-28.3-31.45-5.24-5.84-10.3-11.83-15.71-17.51-2.21-2.32-4.86-5.04-7.76-5.77-15.29-3.81-18.57-18.28-25.94-28.95-.92-1.34,1.88-6.23,4.04-8.39,1.63-1.64,5.72-2.92,7.46-1.99,7.34,3.9,14.25,8.62,21.22,13.2,1.17.77,2.22,2.18,2.66,3.51,3.79,11.34,12.18,18.92,20.85,26.43,12.57,10.89,24.87,22.09,36.98,32.88Z"/>
      </g>
    </g>
  </g>
</svg>